<svg xmlns="http://www.w3.org/2000/svg" viewBox="0 0 240 100">
<title>Flying Monkey — woven neck label</title>
<rect width="240" height="100" fill="#111111"/>
<rect x="4.5" y="4.5" width="231" height="91" fill="none" stroke="#F1C400" stroke-width="1"/>
<g transform="translate(14 14) scale(0.3)"><g id="wings" fill="#F1C400"><path d="M150 98 L211.91 41.23 L221.37 51.55 L159.46 108.32 Z M163.52 112.74 L225.43 55.97 L234.89 66.29 L172.98 123.06 Z M177.03 127.48 L238.95 70.71 L248.41 81.03 L186.5 137.8 Z M150 98 L172.11 77.72 L208.61 117.52 L186.5 137.8 Z"/><path transform="translate(240 0) scale(-1 1)" d="M150 98 L211.91 41.23 L221.37 51.55 L159.46 108.32 Z M163.52 112.74 L225.43 55.97 L234.89 66.29 L172.98 123.06 Z M177.03 127.48 L238.95 70.71 L248.41 81.03 L186.5 137.8 Z M150 98 L172.11 77.72 L208.61 117.52 L186.5 137.8 Z"/></g>
<path id="tail" fill="none" stroke="#F1C400" stroke-width="8" stroke-linecap="butt" d="M92 170 V196 A20 20 0 0 1 52 196 A10 10 0 0 1 72 196"/>
<g id="head" fill="#F1C400"><circle cx="60" cy="102" r="20"/><circle cx="180" cy="102" r="20"/><circle cx="120" cy="120" r="60"/></g>
<g id="face" fill="#111111"><circle cx="58" cy="102" r="10"/><circle cx="182" cy="102" r="10"/><circle cx="100" cy="132" r="30"/><circle cx="140" cy="132" r="30"/><circle cx="106" cy="108" r="20"/><circle cx="134" cy="108" r="20"/><path d="M86 108 H154 V132 H86 Z"/><path d="M100 132 H140 V162 H100 Z"/></g>
<g id="eyes"><circle fill="#F1C400" cx="106" cy="112" r="10"/><rect fill="#111111" x="96" y="102" width="20" height="7"/><circle fill="#F1C400" cx="134" cy="112" r="10"/><rect fill="#111111" x="124" y="102" width="20" height="7"/></g>
<g id="mouth"><rect fill="#F1C400" x="100" y="146" width="40" height="10"/></g>
<g id="cap"><rect fill="#111111" x="100" y="36" width="40" height="30"/><rect fill="#F1C400" x="100" y="56" width="40" height="4"/><path fill="none" stroke="#F1C400" stroke-width="4" d="M140 36 L157.69 52.22"/><circle fill="#F1C400" cx="157.69" cy="52.22" r="5"/></g></g>
<g transform="translate(92 22) scale(1.27)"><clipPath id="sc46"><rect x="0" y="0" width="12" height="11"/></clipPath><g clip-path="url(#sc46)"><path transform="translate(0 0)" fill="none" stroke="#F1C400" stroke-width="2" stroke-linejoin="miter" stroke-miterlimit="8" stroke-linecap="butt" d="M12 1 L1 1 L1 11 M1 5.5 L9 5.5"/></g><clipPath id="sc47"><rect x="14" y="0" width="12" height="11"/></clipPath><g clip-path="url(#sc47)"><path transform="translate(14 0)" fill="none" stroke="#F1C400" stroke-width="2" stroke-linejoin="miter" stroke-miterlimit="8" stroke-linecap="butt" d="M1 0 L1 10 L12 10"/></g><clipPath id="sc48"><rect x="28" y="0" width="12" height="11"/></clipPath><g clip-path="url(#sc48)"><path transform="translate(28 0)" fill="none" stroke="#F1C400" stroke-width="2" stroke-linejoin="miter" stroke-miterlimit="8" stroke-linecap="butt" d="M0 0 L6 5.5 M12 0 L6 5.5 M6 5.5 L6 11"/></g><clipPath id="sc49"><rect x="42" y="0" width="4" height="11"/></clipPath><g clip-path="url(#sc49)"><path transform="translate(42 0)" fill="none" stroke="#F1C400" stroke-width="2" stroke-linejoin="miter" stroke-miterlimit="8" stroke-linecap="butt" d="M2 0 L2 11"/></g><clipPath id="sc50"><rect x="48" y="0" width="12" height="11"/></clipPath><g clip-path="url(#sc50)"><path transform="translate(48 0)" fill="none" stroke="#F1C400" stroke-width="2" stroke-linejoin="miter" stroke-miterlimit="8" stroke-linecap="butt" d="M1 11 L1 0 M0 0 L12 11 M11 0 L11 11"/></g><clipPath id="sc51"><rect x="62" y="0" width="12" height="11"/></clipPath><g clip-path="url(#sc51)"><path transform="translate(62 0)" fill="none" stroke="#F1C400" stroke-width="2" stroke-linejoin="miter" stroke-miterlimit="8" stroke-linecap="butt" d="M12 1 L1 1 L1 10 L11 10 L11 5.5 L6 5.5"/></g></g><g transform="translate(92 41.04) scale(1.27)"><clipPath id="sc52"><rect x="0" y="0" width="12" height="11"/></clipPath><g clip-path="url(#sc52)"><path transform="translate(0 0)" fill="none" stroke="#F1C400" stroke-width="2" stroke-linejoin="miter" stroke-miterlimit="8" stroke-linecap="butt" d="M1 11 L1 0 M1 0 L6 4.58 M11 0 L6 4.58 M11 0 L11 11"/></g><clipPath id="sc53"><rect x="14" y="0" width="12" height="11"/></clipPath><g clip-path="url(#sc53)"><path transform="translate(14 0)" fill="none" stroke="#F1C400" stroke-width="2" stroke-linejoin="miter" stroke-miterlimit="8" stroke-linecap="butt" d="M1 1 L11 1 L11 10 L1 10 L1 1 L11 1"/></g><clipPath id="sc54"><rect x="28" y="0" width="12" height="11"/></clipPath><g clip-path="url(#sc54)"><path transform="translate(28 0)" fill="none" stroke="#F1C400" stroke-width="2" stroke-linejoin="miter" stroke-miterlimit="8" stroke-linecap="butt" d="M1 11 L1 0 M0 0 L12 11 M11 0 L11 11"/></g><clipPath id="sc55"><rect x="42" y="0" width="8" height="11"/></clipPath><g clip-path="url(#sc55)"><path transform="translate(42 0)" fill="none" stroke="#F1C400" stroke-width="2" stroke-linejoin="miter" stroke-miterlimit="8" stroke-linecap="butt" d="M1 0 L1 11 M1 5.5 L7 0 M1 5.5 L7 11"/></g><clipPath id="sc56"><rect x="52" y="0" width="12" height="11"/></clipPath><g clip-path="url(#sc56)"><path transform="translate(52 0)" fill="none" stroke="#F1C400" stroke-width="2" stroke-linejoin="miter" stroke-miterlimit="8" stroke-linecap="butt" d="M12 1 L1 1 L1 10 L12 10 M1 5.5 L9 5.5"/></g><clipPath id="sc57"><rect x="66" y="0" width="12" height="11"/></clipPath><g clip-path="url(#sc57)"><path transform="translate(66 0)" fill="none" stroke="#F1C400" stroke-width="2" stroke-linejoin="miter" stroke-miterlimit="8" stroke-linecap="butt" d="M0 0 L6 5.5 M12 0 L6 5.5 M6 5.5 L6 11"/></g></g>
<g transform="translate(92 70) scale(0.5)"><clipPath id="sc58"><rect x="0" y="0" width="12" height="11"/></clipPath><g clip-path="url(#sc58)"><path transform="translate(0 0)" fill="none" stroke="#F1C400" stroke-width="2" stroke-linejoin="miter" stroke-miterlimit="8" stroke-linecap="butt" d="M1 0 L1 5.5 L12 5.5 M9 0 L9 11"/></g><clipPath id="sc59"><rect x="14" y="0" width="12" height="11"/></clipPath><g clip-path="url(#sc59)"><path transform="translate(14 0)" fill="none" stroke="#F1C400" stroke-width="2" stroke-linejoin="miter" stroke-miterlimit="8" stroke-linecap="butt" d="M0 1 L11 1 L11 5.5 L1 5.5 L1 10 L12 10"/></g><clipPath id="sc60"><rect x="28" y="0" width="6" height="11"/></clipPath><g clip-path="url(#sc60)"><path transform="translate(28 0)" fill="none" stroke="#F1C400" stroke-width="2" stroke-linejoin="miter" stroke-miterlimit="8" stroke-linecap="butt" d="M1 1 L5 1 L5 5 L1 5 L1 1 L5 1"/></g><clipPath id="sc61"><rect x="36" y="0" width="12" height="11"/></clipPath><g clip-path="url(#sc61)"><path transform="translate(36 0)" fill="none" stroke="#F1C400" stroke-width="2" stroke-linejoin="miter" stroke-miterlimit="8" stroke-linecap="butt" d="M0 1 L11 1 L11 10 L0 10 M5 5.5 L11 5.5"/></g><clipPath id="sc62"><rect x="50" y="0" width="8" height="11"/></clipPath><g clip-path="url(#sc62)"><path transform="translate(50 0)" fill="none" stroke="#F1C400" stroke-width="2" stroke-linejoin="miter" stroke-miterlimit="8" stroke-linecap="butt" d="M4 0 L4 11 M1 2.75 L4 0"/></g><clipPath id="sc63"><rect x="60" y="0" width="5" height="11"/></clipPath><g clip-path="url(#sc63)"><path transform="translate(60 0)" fill="none" stroke="#F1C400" stroke-width="2" stroke-linejoin="miter" stroke-miterlimit="8" stroke-linecap="butt" d="M0 3.67 L4 0"/></g><clipPath id="sc64"><rect x="67" y="0" width="8" height="11"/></clipPath><g clip-path="url(#sc64)"><path transform="translate(67 0)" fill="none" stroke="#F1C400" stroke-width="2" stroke-linejoin="miter" stroke-miterlimit="8" stroke-linecap="butt" d="M4 0 L4 11 M1 2.75 L4 0"/></g><clipPath id="sc65"><rect x="77" y="0" width="12" height="11"/></clipPath><g clip-path="url(#sc65)"><path transform="translate(77 0)" fill="none" stroke="#F1C400" stroke-width="2" stroke-linejoin="miter" stroke-miterlimit="8" stroke-linecap="butt" d="M0 1 L11 1 L11 5.5 L1 5.5 L1 10 L12 10"/></g><clipPath id="sc66"><rect x="91" y="0" width="9" height="11"/></clipPath><g clip-path="url(#sc66)"><path transform="translate(91 0)" fill="none" stroke="#F1C400" stroke-width="2" stroke-linejoin="miter" stroke-miterlimit="8" stroke-linecap="butt" d="M0 3.67 L4 0 M4 3.67 L8 0"/></g><clipPath id="sc67"><rect x="102" y="0" width="12" height="11"/></clipPath><g clip-path="url(#sc67)"><path transform="translate(102 0)" fill="none" stroke="#F1C400" stroke-width="2" stroke-linejoin="miter" stroke-miterlimit="8" stroke-linecap="butt" d="M1 11 L1 0 M0 0 L12 11 M11 0 L11 11"/></g><clipPath id="sc68"><rect x="124" y="0" width="4" height="11"/></clipPath><g clip-path="url(#sc68)"><path transform="translate(124 0)" fill="none" stroke="#F1C400" stroke-width="2" stroke-linejoin="miter" stroke-miterlimit="8" stroke-linecap="butt" d="M1 5.5 L3 5.5"/></g><clipPath id="sc69"><rect x="138" y="0" width="12" height="11"/></clipPath><g clip-path="url(#sc69)"><path transform="translate(138 0)" fill="none" stroke="#F1C400" stroke-width="2" stroke-linejoin="miter" stroke-miterlimit="8" stroke-linecap="butt" d="M12 1 L1 1 L1 5.5 L11 5.5 L11 10 L0 10"/></g><clipPath id="sc70"><rect x="152" y="0" width="12" height="11"/></clipPath><g clip-path="url(#sc70)"><path transform="translate(152 0)" fill="none" stroke="#F1C400" stroke-width="2" stroke-linejoin="miter" stroke-miterlimit="8" stroke-linecap="butt" d="M1 11 L1 1 L11 1 L11 11 M1 6.5 L11 6.5"/></g><clipPath id="sc71"><rect x="166" y="0" width="12" height="11"/></clipPath><g clip-path="url(#sc71)"><path transform="translate(166 0)" fill="none" stroke="#F1C400" stroke-width="2" stroke-linejoin="miter" stroke-miterlimit="8" stroke-linecap="butt" d="M1 0 L1 10 L12 10"/></g><clipPath id="sc72"><rect x="180" y="0" width="12" height="11"/></clipPath><g clip-path="url(#sc72)"><path transform="translate(180 0)" fill="none" stroke="#F1C400" stroke-width="2" stroke-linejoin="miter" stroke-miterlimit="8" stroke-linecap="butt" d="M12 1 L1 1 L1 10 L12 10 M1 5.5 L9 5.5"/></g><clipPath id="sc73"><rect x="194" y="0" width="12" height="11"/></clipPath><g clip-path="url(#sc73)"><path transform="translate(194 0)" fill="none" stroke="#F1C400" stroke-width="2" stroke-linejoin="miter" stroke-miterlimit="8" stroke-linecap="butt" d="M1 11 L1 0 M1 0 L6 4.58 M11 0 L6 4.58 M11 0 L11 11"/></g></g>
<path stroke="#F1C400" stroke-width="1" d="M204 14 V86"/>
<g transform="translate(212 38) scale(2)"><clipPath id="sc74"><rect x="0" y="0" width="12" height="11"/></clipPath><g clip-path="url(#sc74)"><path transform="translate(0 0)" fill="none" stroke="#F1C400" stroke-width="2" stroke-linejoin="miter" stroke-miterlimit="8" stroke-linecap="butt" d="M1 0 L1 10 L12 10"/></g></g>
<text x="218" y="70" font-family="'JetBrains Mono', 'ABC Diatype Mono', 'Berkeley Mono', monospace" font-weight="500" font-size="5.5" fill="#F1C400" text-anchor="middle" letter-spacing="0" >FM-AIR</text>
</svg>
