<svg xmlns="http://www.w3.org/2000/svg" viewBox="0 0 300 400">
<title>Flying Monkey — pin card FM-GND-26-PIN-2C</title>
<rect x="0.5" y="0.5" width="299" height="399" fill="#F4F1EA" stroke="#111111" stroke-width="1"/>
<circle cx="150" cy="22" r="5" fill="none" stroke="#111111" stroke-width="1"/>
<g transform="translate(60 60) scale(0.75)"><g id="head" fill="#111111"><circle cx="60" cy="102" r="20"/><circle cx="180" cy="102" r="20"/><circle cx="120" cy="120" r="60"/></g>
<g id="face" fill="#F1C400"><circle cx="58" cy="102" r="10"/><circle cx="182" cy="102" r="10"/><circle cx="100" cy="132" r="30"/><circle cx="140" cy="132" r="30"/><circle cx="106" cy="108" r="20"/><circle cx="134" cy="108" r="20"/><path d="M86 108 H154 V132 H86 Z"/><path d="M100 132 H140 V162 H100 Z"/></g>
<g id="eyes"><circle fill="#111111" cx="106" cy="112" r="10"/><rect fill="#F1C400" x="96" y="102" width="20" height="7"/><circle fill="#111111" cx="134" cy="112" r="10"/><rect fill="#F1C400" x="124" y="102" width="20" height="7"/></g>
<g id="mouth"><rect fill="#111111" x="100" y="146" width="40" height="10"/></g>
<g id="cap"><rect fill="#F1C400" x="100" y="36" width="40" height="30"/><rect fill="#111111" x="100" y="56" width="40" height="4"/><path fill="none" stroke="#111111" stroke-width="4" d="M140 36 L157.69 52.22"/><circle fill="#111111" cx="157.69" cy="52.22" r="5"/></g></g>
<path stroke="#111111" stroke-width="1" d="M20 236 H280"/>
<g transform="translate(20 248) scale(1.64)"><clipPath id="sc253"><rect x="0" y="0" width="12" height="11"/></clipPath><g clip-path="url(#sc253)"><path transform="translate(0 0)" fill="none" stroke="#111111" stroke-width="2" stroke-linejoin="miter" stroke-miterlimit="8" stroke-linecap="butt" d="M12 1 L1 1 L1 11 M1 5.5 L9 5.5"/></g><clipPath id="sc254"><rect x="14" y="0" width="12" height="11"/></clipPath><g clip-path="url(#sc254)"><path transform="translate(14 0)" fill="none" stroke="#111111" stroke-width="2" stroke-linejoin="miter" stroke-miterlimit="8" stroke-linecap="butt" d="M1 0 L1 10 L12 10"/></g><clipPath id="sc255"><rect x="28" y="0" width="12" height="11"/></clipPath><g clip-path="url(#sc255)"><path transform="translate(28 0)" fill="none" stroke="#111111" stroke-width="2" stroke-linejoin="miter" stroke-miterlimit="8" stroke-linecap="butt" d="M0 0 L6 5.5 M12 0 L6 5.5 M6 5.5 L6 11"/></g><clipPath id="sc256"><rect x="42" y="0" width="4" height="11"/></clipPath><g clip-path="url(#sc256)"><path transform="translate(42 0)" fill="none" stroke="#111111" stroke-width="2" stroke-linejoin="miter" stroke-miterlimit="8" stroke-linecap="butt" d="M2 0 L2 11"/></g><clipPath id="sc257"><rect x="48" y="0" width="12" height="11"/></clipPath><g clip-path="url(#sc257)"><path transform="translate(48 0)" fill="none" stroke="#111111" stroke-width="2" stroke-linejoin="miter" stroke-miterlimit="8" stroke-linecap="butt" d="M1 11 L1 0 M0 0 L12 11 M11 0 L11 11"/></g><clipPath id="sc258"><rect x="62" y="0" width="12" height="11"/></clipPath><g clip-path="url(#sc258)"><path transform="translate(62 0)" fill="none" stroke="#111111" stroke-width="2" stroke-linejoin="miter" stroke-miterlimit="8" stroke-linecap="butt" d="M12 1 L1 1 L1 10 L11 10 L11 5.5 L6 5.5"/></g></g><g transform="translate(20 272.48) scale(1.64)"><clipPath id="sc259"><rect x="0" y="0" width="12" height="11"/></clipPath><g clip-path="url(#sc259)"><path transform="translate(0 0)" fill="none" stroke="#111111" stroke-width="2" stroke-linejoin="miter" stroke-miterlimit="8" stroke-linecap="butt" d="M1 11 L1 0 M1 0 L6 4.58 M11 0 L6 4.58 M11 0 L11 11"/></g><clipPath id="sc260"><rect x="14" y="0" width="12" height="11"/></clipPath><g clip-path="url(#sc260)"><path transform="translate(14 0)" fill="none" stroke="#111111" stroke-width="2" stroke-linejoin="miter" stroke-miterlimit="8" stroke-linecap="butt" d="M1 1 L11 1 L11 10 L1 10 L1 1 L11 1"/></g><clipPath id="sc261"><rect x="28" y="0" width="12" height="11"/></clipPath><g clip-path="url(#sc261)"><path transform="translate(28 0)" fill="none" stroke="#111111" stroke-width="2" stroke-linejoin="miter" stroke-miterlimit="8" stroke-linecap="butt" d="M1 11 L1 0 M0 0 L12 11 M11 0 L11 11"/></g><clipPath id="sc262"><rect x="42" y="0" width="8" height="11"/></clipPath><g clip-path="url(#sc262)"><path transform="translate(42 0)" fill="none" stroke="#111111" stroke-width="2" stroke-linejoin="miter" stroke-miterlimit="8" stroke-linecap="butt" d="M1 0 L1 11 M1 5.5 L7 0 M1 5.5 L7 11"/></g><clipPath id="sc263"><rect x="52" y="0" width="12" height="11"/></clipPath><g clip-path="url(#sc263)"><path transform="translate(52 0)" fill="none" stroke="#111111" stroke-width="2" stroke-linejoin="miter" stroke-miterlimit="8" stroke-linecap="butt" d="M12 1 L1 1 L1 10 L12 10 M1 5.5 L9 5.5"/></g><clipPath id="sc264"><rect x="66" y="0" width="12" height="11"/></clipPath><g clip-path="url(#sc264)"><path transform="translate(66 0)" fill="none" stroke="#111111" stroke-width="2" stroke-linejoin="miter" stroke-miterlimit="8" stroke-linecap="butt" d="M0 0 L6 5.5 M12 0 L6 5.5 M6 5.5 L6 11"/></g></g>
<g transform="translate(20 300) scale(0.64)"><clipPath id="sc265"><rect x="0" y="0" width="12" height="11"/></clipPath><g clip-path="url(#sc265)"><path transform="translate(0 0)" fill="none" stroke="#111111" stroke-width="2" stroke-linejoin="miter" stroke-miterlimit="8" stroke-linecap="butt" d="M12 1 L1 1 L1 10 L11 10 L11 5.5 L6 5.5"/></g><clipPath id="sc266"><rect x="14" y="0" width="12" height="11"/></clipPath><g clip-path="url(#sc266)"><path transform="translate(14 0)" fill="none" stroke="#111111" stroke-width="2" stroke-linejoin="miter" stroke-miterlimit="8" stroke-linecap="butt" d="M1 11 L1 1 L11 1 L11 5.5 L1 5.5 M5 5.5 L11 11"/></g><clipPath id="sc267"><rect x="28" y="0" width="12" height="11"/></clipPath><g clip-path="url(#sc267)"><path transform="translate(28 0)" fill="none" stroke="#111111" stroke-width="2" stroke-linejoin="miter" stroke-miterlimit="8" stroke-linecap="butt" d="M1 1 L11 1 L11 10 L1 10 L1 1 L11 1"/></g><clipPath id="sc268"><rect x="42" y="0" width="12" height="11"/></clipPath><g clip-path="url(#sc268)"><path transform="translate(42 0)" fill="none" stroke="#111111" stroke-width="2" stroke-linejoin="miter" stroke-miterlimit="8" stroke-linecap="butt" d="M1 0 L1 10 L11 10 L11 0"/></g><clipPath id="sc269"><rect x="56" y="0" width="12" height="11"/></clipPath><g clip-path="url(#sc269)"><path transform="translate(56 0)" fill="none" stroke="#111111" stroke-width="2" stroke-linejoin="miter" stroke-miterlimit="8" stroke-linecap="butt" d="M1 11 L1 0 M0 0 L12 11 M11 0 L11 11"/></g><clipPath id="sc270"><rect x="70" y="0" width="12" height="11"/></clipPath><g clip-path="url(#sc270)"><path transform="translate(70 0)" fill="none" stroke="#111111" stroke-width="2" stroke-linejoin="miter" stroke-miterlimit="8" stroke-linecap="butt" d="M1 0 L1 11 M1 1 L9 1 L11 2.83 L11 8.17 L9 10 L1 10"/></g><clipPath id="sc271"><rect x="92" y="0" width="12" height="11"/></clipPath><g clip-path="url(#sc271)"><path transform="translate(92 0)" fill="none" stroke="#111111" stroke-width="2" stroke-linejoin="miter" stroke-miterlimit="8" stroke-linecap="butt" d="M12 1 L1 1 L1 10 L12 10"/></g><clipPath id="sc272"><rect x="106" y="0" width="12" height="11"/></clipPath><g clip-path="url(#sc272)"><path transform="translate(106 0)" fill="none" stroke="#111111" stroke-width="2" stroke-linejoin="miter" stroke-miterlimit="8" stroke-linecap="butt" d="M1 11 L1 1 L11 1 L11 5.5 L1 5.5 M5 5.5 L11 11"/></g><clipPath id="sc273"><rect x="120" y="0" width="12" height="11"/></clipPath><g clip-path="url(#sc273)"><path transform="translate(120 0)" fill="none" stroke="#111111" stroke-width="2" stroke-linejoin="miter" stroke-miterlimit="8" stroke-linecap="butt" d="M12 1 L1 1 L1 10 L12 10 M1 5.5 L9 5.5"/></g><clipPath id="sc274"><rect x="134" y="0" width="12" height="11"/></clipPath><g clip-path="url(#sc274)"><path transform="translate(134 0)" fill="none" stroke="#111111" stroke-width="2" stroke-linejoin="miter" stroke-miterlimit="8" stroke-linecap="butt" d="M1 0 L1 10 L11 10 L11 0 M6 5.5 L6 10"/></g></g>
<path stroke="#111111" stroke-width="1" d="M20 314 H280"/>
<text x="20" y="328" font-family="'JetBrains Mono', 'ABC Diatype Mono', 'Berkeley Mono', monospace" font-weight="700" font-size="8" fill="#111111" text-anchor="start" letter-spacing="0" >FM-GND-26-PIN-2C</text>
<text x="280" y="328" font-family="'JetBrains Mono', 'ABC Diatype Mono', 'Berkeley Mono', monospace" font-weight="500" font-size="8" fill="#111111" text-anchor="end" letter-spacing="0" >COMMAND 02/03</text>
<text x="20" y="340" font-family="'JetBrains Mono', 'ABC Diatype Mono', 'Berkeley Mono', monospace" font-weight="500" font-size="6.5" fill="#111111" text-anchor="start" letter-spacing="0" >SOFT ENAMEL · 1.25 IN · BLACK C + 7406 C</text>
<text x="280" y="340" font-family="'JetBrains Mono', 'ABC Diatype Mono', 'Berkeley Mono', monospace" font-weight="500" font-size="6.5" fill="#111111" text-anchor="end" letter-spacing="0" >HEAD ONLY · WINGS DETACHED</text>
<path stroke="#111111" stroke-width="1" d="M20 350 H280"/>
<text x="20" y="364" font-family="'JetBrains Mono', 'ABC Diatype Mono', 'Berkeley Mono', monospace" font-weight="700" font-size="7" fill="#111111" text-anchor="start" letter-spacing="0" >THREE COMMANDS PER OWNER.</text>
<text x="20" y="378" font-family="'JetBrains Mono', 'ABC Diatype Mono', 'Berkeley Mono', monospace" font-weight="500" font-size="6" fill="#111111" text-anchor="start" letter-spacing="0" >The Cap is held in-house.</text>
<text x="280" y="390" font-family="'JetBrains Mono', 'ABC Diatype Mono', 'Berkeley Mono', monospace" font-weight="500" font-size="5.5" fill="#111111" text-anchor="end" letter-spacing="0" >SALEM MA · 42.52°N 70.90°W</text>
<text x="20" y="390" font-family="'JetBrains Mono', 'ABC Diatype Mono', 'Berkeley Mono', monospace" font-weight="500" font-size="5.5" fill="#111111" text-anchor="start" letter-spacing="0" >47 CANAL ST</text>
</svg>
