<svg xmlns="http://www.w3.org/2000/svg" viewBox="0 0 300 300">
<title>Flying Monkey — service notice sticker</title>
<circle cx="150" cy="150" r="149" fill="#111111"/>
<circle cx="150" cy="150" r="118" fill="none" stroke="#F1C400" stroke-width="1"/>
<circle cx="150" cy="150" r="140" fill="none" stroke="#F1C400" stroke-width="1"/>
<defs><path id="ring" d="M150 150 m-129 0 a129 129 0 1 1 258 0 a129 129 0 1 1 -258 0"/></defs>
<text font-family="'JetBrains Mono', 'ABC Diatype Mono', 'Berkeley Mono', monospace" font-size="11" font-weight="700" fill="#F1C400" letter-spacing="2.2"><textPath href="#ring">FLYING MONKEY AIR SERVICES · SERVICE NOTICE · THREE COMMANDS PER OWNER · </textPath></text>
<g transform="translate(66 60) scale(0.7)"><g id="wings" fill="#F1C400"><path d="M152 96 L225.7 28.42 L235.17 38.73 L161.46 106.32 Z M165.52 110.74 L224.48 56.67 L233.94 66.99 L174.98 121.06 Z M179.03 125.48 L223.26 84.93 L232.72 95.25 L188.5 135.8 Z M152 96 L174.11 75.72 L210.61 115.52 L188.5 135.8 Z"/><path transform="translate(240 0) scale(-1 1)" d="M152 96 L225.7 28.42 L235.17 38.73 L161.46 106.32 Z M165.52 110.74 L224.48 56.67 L233.94 66.99 L174.98 121.06 Z M179.03 125.48 L223.26 84.93 L232.72 95.25 L188.5 135.8 Z M152 96 L174.11 75.72 L210.61 115.52 L188.5 135.8 Z"/></g>
<path id="tail" fill="none" stroke="#F1C400" stroke-width="8" stroke-linecap="butt" d="M92 170 V196 A20 20 0 0 1 52 196 A10 10 0 0 1 72 196"/>
<g id="head" fill="#F1C400"><circle cx="60" cy="102" r="20"/><circle cx="180" cy="102" r="20"/><circle cx="120" cy="120" r="60"/></g>
<g id="face" fill="#111111"><circle cx="58" cy="102" r="10"/><circle cx="182" cy="102" r="10"/><circle cx="100" cy="132" r="30"/><circle cx="140" cy="132" r="30"/><circle cx="106" cy="108" r="20"/><circle cx="134" cy="108" r="20"/><path d="M86 108 H154 V132 H86 Z"/><path d="M100 132 H140 V162 H100 Z"/></g>
<g id="eyes"><circle fill="#F1C400" cx="106" cy="112" r="10"/><rect fill="#111111" x="96" y="102" width="20" height="7"/><circle fill="#F1C400" cx="134" cy="112" r="10"/><rect fill="#111111" x="124" y="102" width="20" height="7"/></g>
<g id="mouth"><rect fill="#F1C400" x="100" y="146" width="40" height="10"/></g>
<g id="cap"><rect fill="#111111" x="100" y="36" width="40" height="30"/><rect fill="#F1C400" x="100" y="56" width="40" height="4"/><path fill="none" stroke="#F1C400" stroke-width="4" d="M140 36 L157.69 52.22"/><circle fill="#F1C400" cx="157.69" cy="52.22" r="5"/></g></g>
<text x="150" y="250" font-family="'JetBrains Mono', 'ABC Diatype Mono', 'Berkeley Mono', monospace" font-weight="500" font-size="8" fill="#F1C400" text-anchor="middle" letter-spacing="0.5" >FM-CAP-26-STK-1C</text>
</svg>
