<svg xmlns="http://www.w3.org/2000/svg" viewBox="-2 -2 626 64">
<title>Flying Monkey — 42°31′12″N readout</title>
<g transform="translate(0 0) scale(5.45)"><clipPath id="sc13"><rect x="0" y="0" width="12" height="11"/></clipPath><g clip-path="url(#sc13)"><path transform="translate(0 0)" fill="none" stroke="#111111" stroke-width="2" stroke-linejoin="miter" stroke-miterlimit="8" stroke-linecap="butt" d="M1 0 L1 5.5 L12 5.5 M9 0 L9 11"/></g><clipPath id="sc14"><rect x="14" y="0" width="12" height="11"/></clipPath><g clip-path="url(#sc14)"><path transform="translate(14 0)" fill="none" stroke="#111111" stroke-width="2" stroke-linejoin="miter" stroke-miterlimit="8" stroke-linecap="butt" d="M0 1 L11 1 L11 5.5 L1 5.5 L1 10 L12 10"/></g><clipPath id="sc15"><rect x="28" y="0" width="6" height="11"/></clipPath><g clip-path="url(#sc15)"><path transform="translate(28 0)" fill="none" stroke="#111111" stroke-width="2" stroke-linejoin="miter" stroke-miterlimit="8" stroke-linecap="butt" d="M1 1 L5 1 L5 5 L1 5 L1 1 L5 1"/></g><clipPath id="sc16"><rect x="36" y="0" width="12" height="11"/></clipPath><g clip-path="url(#sc16)"><path transform="translate(36 0)" fill="none" stroke="#111111" stroke-width="2" stroke-linejoin="miter" stroke-miterlimit="8" stroke-linecap="butt" d="M0 1 L11 1 L11 10 L0 10 M5 5.5 L11 5.5"/></g><clipPath id="sc17"><rect x="50" y="0" width="8" height="11"/></clipPath><g clip-path="url(#sc17)"><path transform="translate(50 0)" fill="none" stroke="#111111" stroke-width="2" stroke-linejoin="miter" stroke-miterlimit="8" stroke-linecap="butt" d="M4 0 L4 11 M1 2.75 L4 0"/></g><clipPath id="sc18"><rect x="60" y="0" width="5" height="11"/></clipPath><g clip-path="url(#sc18)"><path transform="translate(60 0)" fill="none" stroke="#111111" stroke-width="2" stroke-linejoin="miter" stroke-miterlimit="8" stroke-linecap="butt" d="M0 3.67 L4 0"/></g><clipPath id="sc19"><rect x="67" y="0" width="8" height="11"/></clipPath><g clip-path="url(#sc19)"><path transform="translate(67 0)" fill="none" stroke="#111111" stroke-width="2" stroke-linejoin="miter" stroke-miterlimit="8" stroke-linecap="butt" d="M4 0 L4 11 M1 2.75 L4 0"/></g><clipPath id="sc20"><rect x="77" y="0" width="12" height="11"/></clipPath><g clip-path="url(#sc20)"><path transform="translate(77 0)" fill="none" stroke="#111111" stroke-width="2" stroke-linejoin="miter" stroke-miterlimit="8" stroke-linecap="butt" d="M0 1 L11 1 L11 5.5 L1 5.5 L1 10 L12 10"/></g><clipPath id="sc21"><rect x="91" y="0" width="9" height="11"/></clipPath><g clip-path="url(#sc21)"><path transform="translate(91 0)" fill="none" stroke="#111111" stroke-width="2" stroke-linejoin="miter" stroke-miterlimit="8" stroke-linecap="butt" d="M0 3.67 L4 0 M4 3.67 L8 0"/></g><clipPath id="sc22"><rect x="102" y="0" width="12" height="11"/></clipPath><g clip-path="url(#sc22)"><path transform="translate(102 0)" fill="none" stroke="#111111" stroke-width="2" stroke-linejoin="miter" stroke-miterlimit="8" stroke-linecap="butt" d="M1 11 L1 0 M0 0 L12 11 M11 0 L11 11"/></g></g>
</svg>
