<svg xmlns="http://www.w3.org/2000/svg" viewBox="-2 -2 429 146">
<title>Flying Monkey — wordmark in the segment alphabet</title>
<g transform="translate(0 0) scale(5.45)"><clipPath id="sc1"><rect x="0" y="0" width="12" height="11"/></clipPath><g clip-path="url(#sc1)"><path transform="translate(0 0)" fill="none" stroke="#111111" stroke-width="2" stroke-linejoin="miter" stroke-miterlimit="8" stroke-linecap="butt" d="M12 1 L1 1 L1 11 M1 5.5 L9 5.5"/></g><clipPath id="sc2"><rect x="14" y="0" width="12" height="11"/></clipPath><g clip-path="url(#sc2)"><path transform="translate(14 0)" fill="none" stroke="#111111" stroke-width="2" stroke-linejoin="miter" stroke-miterlimit="8" stroke-linecap="butt" d="M1 0 L1 10 L12 10"/></g><clipPath id="sc3"><rect x="28" y="0" width="12" height="11"/></clipPath><g clip-path="url(#sc3)"><path transform="translate(28 0)" fill="none" stroke="#111111" stroke-width="2" stroke-linejoin="miter" stroke-miterlimit="8" stroke-linecap="butt" d="M0 0 L6 5.5 M12 0 L6 5.5 M6 5.5 L6 11"/></g><clipPath id="sc4"><rect x="42" y="0" width="4" height="11"/></clipPath><g clip-path="url(#sc4)"><path transform="translate(42 0)" fill="none" stroke="#111111" stroke-width="2" stroke-linejoin="miter" stroke-miterlimit="8" stroke-linecap="butt" d="M2 0 L2 11"/></g><clipPath id="sc5"><rect x="48" y="0" width="12" height="11"/></clipPath><g clip-path="url(#sc5)"><path transform="translate(48 0)" fill="none" stroke="#111111" stroke-width="2" stroke-linejoin="miter" stroke-miterlimit="8" stroke-linecap="butt" d="M1 11 L1 0 M0 0 L12 11 M11 0 L11 11"/></g><clipPath id="sc6"><rect x="62" y="0" width="12" height="11"/></clipPath><g clip-path="url(#sc6)"><path transform="translate(62 0)" fill="none" stroke="#111111" stroke-width="2" stroke-linejoin="miter" stroke-miterlimit="8" stroke-linecap="butt" d="M12 1 L1 1 L1 10 L11 10 L11 5.5 L6 5.5"/></g></g><g transform="translate(0 81.6) scale(5.45)"><clipPath id="sc7"><rect x="0" y="0" width="12" height="11"/></clipPath><g clip-path="url(#sc7)"><path transform="translate(0 0)" fill="none" stroke="#111111" stroke-width="2" stroke-linejoin="miter" stroke-miterlimit="8" stroke-linecap="butt" d="M1 11 L1 0 M1 0 L6 4.58 M11 0 L6 4.58 M11 0 L11 11"/></g><clipPath id="sc8"><rect x="14" y="0" width="12" height="11"/></clipPath><g clip-path="url(#sc8)"><path transform="translate(14 0)" fill="none" stroke="#111111" stroke-width="2" stroke-linejoin="miter" stroke-miterlimit="8" stroke-linecap="butt" d="M1 1 L11 1 L11 10 L1 10 L1 1 L11 1"/></g><clipPath id="sc9"><rect x="28" y="0" width="12" height="11"/></clipPath><g clip-path="url(#sc9)"><path transform="translate(28 0)" fill="none" stroke="#111111" stroke-width="2" stroke-linejoin="miter" stroke-miterlimit="8" stroke-linecap="butt" d="M1 11 L1 0 M0 0 L12 11 M11 0 L11 11"/></g><clipPath id="sc10"><rect x="42" y="0" width="8" height="11"/></clipPath><g clip-path="url(#sc10)"><path transform="translate(42 0)" fill="none" stroke="#111111" stroke-width="2" stroke-linejoin="miter" stroke-miterlimit="8" stroke-linecap="butt" d="M1 0 L1 11 M1 5.5 L7 0 M1 5.5 L7 11"/></g><clipPath id="sc11"><rect x="52" y="0" width="12" height="11"/></clipPath><g clip-path="url(#sc11)"><path transform="translate(52 0)" fill="none" stroke="#111111" stroke-width="2" stroke-linejoin="miter" stroke-miterlimit="8" stroke-linecap="butt" d="M12 1 L1 1 L1 10 L12 10 M1 5.5 L9 5.5"/></g><clipPath id="sc12"><rect x="66" y="0" width="12" height="11"/></clipPath><g clip-path="url(#sc12)"><path transform="translate(66 0)" fill="none" stroke="#111111" stroke-width="2" stroke-linejoin="miter" stroke-miterlimit="8" stroke-linecap="butt" d="M0 0 L6 5.5 M12 0 L6 5.5 M6 5.5 L6 11"/></g></g>
</svg>
